<svg xmlns="http://www.w3.org/2000/svg" width="1200" height="800" viewBox="0 0 1200 800"><rect width="1200" height="800" fill="#fff"/><rect width="210" height="800" fill="#0F2A2E"/><text x="24" y="40" font-family="Segoe UI, Arial, sans-serif" font-size="14" font-weight="bold" fill="#C9D2D0" text-anchor="start">AI Worker Platform</text><text x="30" y="80" font-family="Segoe UI, Arial, sans-serif" font-size="14" font-weight="normal" fill="#8FA19E" text-anchor="start">Dashboard</text><text x="30" y="124" font-family="Segoe UI, Arial, sans-serif" font-size="14" font-weight="normal" fill="#8FA19E" text-anchor="start">Compose</text><text x="30" y="168" font-family="Segoe UI, Arial, sans-serif" font-size="14" font-weight="normal" fill="#8FA19E" text-anchor="start">Registry</text><rect x="10" y="192" width="190" height="36" rx="8" fill="#ffffff22"/><rect x="10" y="200" width="3" height="20" fill="#F2662A"/><text x="30" y="212" font-family="Segoe UI, Arial, sans-serif" font-size="14" font-weight="normal" fill="#fff" text-anchor="start">Knowledge</text><text x="30" y="256" font-family="Segoe UI, Arial, sans-serif" font-size="14" font-weight="normal" fill="#8FA19E" text-anchor="start">Learning</text><text x="30" y="300" font-family="Segoe UI, Arial, sans-serif" font-size="14" font-weight="normal" fill="#8FA19E" text-anchor="start">Sentinel</text><text x="250" y="56" font-family="Segoe UI, Arial, sans-serif" font-size="26" font-weight="bold" fill="#1A2422" text-anchor="start">Knowledge catalogue</text><text x="250" y="80" font-family="Segoe UI, Arial, sans-serif" font-size="13" font-weight="normal" fill="#6B7280" text-anchor="start">Everything Workers can draw on.</text><text x="250" y="30" font-family="Segoe UI, Arial, sans-serif" font-size="12" font-weight="normal" fill="#F2662A" text-anchor="start">&lt; Knowledge</text><rect x="250" y="100" width="718" height="40" rx="20" fill="#F4F5F6" stroke="#F4F5F6"/><rect x="256" y="105" width="78" height="30" rx="15" fill="#F2662A" stroke="#F2662A"/><text x="295.0" y="124.33333333333333" font-family="Segoe UI, Arial, sans-serif" font-size="13" font-weight="bold" fill="#fff" text-anchor="middle">Skills</text><text x="449.0" y="125" font-family="Segoe UI, Arial, sans-serif" font-size="13" font-weight="bold" fill="#6B7280" text-anchor="middle">Domain Specific Language</text><text x="635.0" y="125" font-family="Segoe UI, Arial, sans-serif" font-size="13" font-weight="bold" fill="#6B7280" text-anchor="middle">EVAL Playbooks</text><text x="797.0" y="125" font-family="Segoe UI, Arial, sans-serif" font-size="13" font-weight="bold" fill="#6B7280" text-anchor="middle">Definition of Done</text><text x="935.0" y="125" font-family="Segoe UI, Arial, sans-serif" font-size="13" font-weight="bold" fill="#6B7280" text-anchor="middle">SLM Farm</text><rect x="250" y="170" width="295" height="150" rx="12" fill="#fff" stroke="#B8BEC4"/><rect x="266" y="200" width="250" height="5" rx="2" fill="#DADDE0"/><rect x="266" y="218" width="220" height="5" rx="2" fill="#DADDE0"/><rect x="266" y="236" width="190" height="5" rx="2" fill="#DADDE0"/><rect x="266" y="254" width="250" height="5" rx="2" fill="#DADDE0"/><rect x="266" y="272" width="220" height="5" rx="2" fill="#DADDE0"/><rect x="565" y="170" width="295" height="150" rx="12" fill="#fff" stroke="#B8BEC4"/><rect x="266" y="200" width="250" height="5" rx="2" fill="#DADDE0"/><rect x="266" y="218" width="220" height="5" rx="2" fill="#DADDE0"/><rect x="266" y="236" width="190" height="5" rx="2" fill="#DADDE0"/><rect x="266" y="254" width="250" height="5" rx="2" fill="#DADDE0"/><rect x="266" y="272" width="220" height="5" rx="2" fill="#DADDE0"/><rect x="880" y="170" width="295" height="150" rx="12" fill="#fff" stroke="#B8BEC4"/><rect x="266" y="200" width="250" height="5" rx="2" fill="#DADDE0"/><rect x="266" y="218" width="220" height="5" rx="2" fill="#DADDE0"/><rect x="266" y="236" width="190" height="5" rx="2" fill="#DADDE0"/><rect x="266" y="254" width="250" height="5" rx="2" fill="#DADDE0"/><rect x="266" y="272" width="220" height="5" rx="2" fill="#DADDE0"/><rect x="250" y="340" width="295" height="150" rx="12" fill="#fff" stroke="#B8BEC4"/><rect x="266" y="370" width="250" height="5" rx="2" fill="#DADDE0"/><rect x="266" y="388" width="220" height="5" rx="2" fill="#DADDE0"/><rect x="266" y="406" width="190" height="5" rx="2" fill="#DADDE0"/><rect x="266" y="424" width="250" height="5" rx="2" fill="#DADDE0"/><rect x="266" y="442" width="220" height="5" rx="2" fill="#DADDE0"/><rect x="565" y="340" width="295" height="150" rx="12" fill="#fff" stroke="#B8BEC4"/><rect x="266" y="370" width="250" height="5" rx="2" fill="#DADDE0"/><rect x="266" y="388" width="220" height="5" rx="2" fill="#DADDE0"/><rect x="266" y="406" width="190" height="5" rx="2" fill="#DADDE0"/><rect x="266" y="424" width="250" height="5" rx="2" fill="#DADDE0"/><rect x="266" y="442" width="220" height="5" rx="2" fill="#DADDE0"/><rect x="880" y="340" width="295" height="150" rx="12" fill="#fff" stroke="#B8BEC4"/><rect x="266" y="370" width="250" height="5" rx="2" fill="#DADDE0"/><rect x="266" y="388" width="220" height="5" rx="2" fill="#DADDE0"/><rect x="266" y="406" width="190" height="5" rx="2" fill="#DADDE0"/><rect x="266" y="424" width="250" height="5" rx="2" fill="#DADDE0"/><rect x="266" y="442" width="220" height="5" rx="2" fill="#DADDE0"/></svg>