<svg xmlns="http://www.w3.org/2000/svg" width="1200" height="800" viewBox="0 0 1200 800"><rect width="1200" height="800" fill="#fff"/><rect width="210" height="800" fill="#0F2A2E"/><text x="24" y="40" font-family="Segoe UI, Arial, sans-serif" font-size="14" font-weight="bold" fill="#C9D2D0" text-anchor="start">AI Worker Platform</text><text x="30" y="80" font-family="Segoe UI, Arial, sans-serif" font-size="14" font-weight="normal" fill="#8FA19E" text-anchor="start">Dashboard</text><text x="30" y="124" font-family="Segoe UI, Arial, sans-serif" font-size="14" font-weight="normal" fill="#8FA19E" text-anchor="start">Compose</text><text x="30" y="168" font-family="Segoe UI, Arial, sans-serif" font-size="14" font-weight="normal" fill="#8FA19E" text-anchor="start">Registry</text><text x="30" y="212" font-family="Segoe UI, Arial, sans-serif" font-size="14" font-weight="normal" fill="#8FA19E" text-anchor="start">Knowledge</text><rect x="10" y="236" width="190" height="36" rx="8" fill="#ffffff22"/><rect x="10" y="244" width="3" height="20" fill="#F2662A"/><text x="30" y="256" font-family="Segoe UI, Arial, sans-serif" font-size="14" font-weight="normal" fill="#fff" text-anchor="start">Learning</text><text x="30" y="300" font-family="Segoe UI, Arial, sans-serif" font-size="14" font-weight="normal" fill="#8FA19E" text-anchor="start">Sentinel</text><text x="250" y="56" font-family="Segoe UI, Arial, sans-serif" font-size="26" font-weight="bold" fill="#1A2422" text-anchor="start">Detailed reports</text><text x="250" y="80" font-family="Segoe UI, Arial, sans-serif" font-size="13" font-weight="normal" fill="#6B7280" text-anchor="start">What Workers have worked out from doing the work.</text><text x="250" y="30" font-family="Segoe UI, Arial, sans-serif" font-size="12" font-weight="normal" fill="#F2662A" text-anchor="start">&lt; Learning</text><rect x="250" y="100" width="506" height="40" rx="20" fill="#F4F5F6" stroke="#F4F5F6"/><rect x="256" y="105" width="230" height="30" rx="15" fill="#F2662A" stroke="#F2662A"/><text x="371.0" y="124.33333333333333" font-family="Segoe UI, Arial, sans-serif" font-size="13" font-weight="bold" fill="#fff" text-anchor="middle">What Workers have learned</text><text x="549.0" y="125" font-family="Segoe UI, Arial, sans-serif" font-size="13" font-weight="bold" fill="#6B7280" text-anchor="middle">Every brain</text><text x="687.0" y="125" font-family="Segoe UI, Arial, sans-serif" font-size="13" font-weight="bold" fill="#6B7280" text-anchor="middle">Sharing a brain</text><rect x="250" y="160" width="218" height="110" rx="12" fill="#fff" stroke="#B8BEC4"/><rect x="266" y="176" width="32" height="32" rx="8" fill="#0F2A2E"/><text x="308" y="197" font-family="Segoe UI, Arial, sans-serif" font-size="12" font-weight="normal" fill="#6B7280" text-anchor="start">Funnel metric</text><text x="266" y="246" font-family="Segoe UI, Arial, sans-serif" font-size="28" font-weight="bold" fill="#1A2422" text-anchor="start">0</text><rect x="482" y="160" width="218" height="110" rx="12" fill="#fff" stroke="#B8BEC4"/><rect x="498" y="176" width="32" height="32" rx="8" fill="#F2662A"/><text x="540" y="197" font-family="Segoe UI, Arial, sans-serif" font-size="12" font-weight="normal" fill="#6B7280" text-anchor="start">Funnel metric</text><text x="498" y="246" font-family="Segoe UI, Arial, sans-serif" font-size="28" font-weight="bold" fill="#1A2422" text-anchor="start">0</text><rect x="714" y="160" width="218" height="110" rx="12" fill="#fff" stroke="#B8BEC4"/><rect x="730" y="176" width="32" height="32" rx="8" fill="#0F2A2E"/><text x="772" y="197" font-family="Segoe UI, Arial, sans-serif" font-size="12" font-weight="normal" fill="#6B7280" text-anchor="start">Funnel metric</text><text x="730" y="246" font-family="Segoe UI, Arial, sans-serif" font-size="28" font-weight="bold" fill="#1A2422" text-anchor="start">0</text><rect x="946" y="160" width="218" height="110" rx="12" fill="#fff" stroke="#B8BEC4"/><rect x="962" y="176" width="32" height="32" rx="8" fill="#F2662A"/><text x="1004" y="197" font-family="Segoe UI, Arial, sans-serif" font-size="12" font-weight="normal" fill="#6B7280" text-anchor="start">Funnel metric</text><text x="962" y="246" font-family="Segoe UI, Arial, sans-serif" font-size="28" font-weight="bold" fill="#1A2422" text-anchor="start">0</text><rect x="250" y="290" width="920" height="200" rx="12" fill="#fff" stroke="#B8BEC4"/><text x="266" y="318" font-family="Segoe UI, Arial, sans-serif" font-size="14" font-weight="bold" fill="#1A2422" text-anchor="start">What changed in a Skill</text><rect x="268" y="340" width="800" height="5" rx="2" fill="#DADDE0"/><rect x="268" y="360" width="770" height="5" rx="2" fill="#DADDE0"/><rect x="268" y="380" width="740" height="5" rx="2" fill="#DADDE0"/><rect x="268" y="400" width="800" height="5" rx="2" fill="#DADDE0"/><rect x="268" y="420" width="770" height="5" rx="2" fill="#DADDE0"/><rect x="268" y="440" width="740" height="5" rx="2" fill="#DADDE0"/><rect x="250" y="510" width="295" height="200" rx="12" fill="#fff" stroke="#B8BEC4"/><rect x="565" y="510" width="295" height="200" rx="12" fill="#fff" stroke="#B8BEC4"/><rect x="880" y="510" width="295" height="200" rx="12" fill="#fff" stroke="#B8BEC4"/></svg>